<svg id="图层_1" data-name="图层 1" xmlns="http://www.w3.org/2000/svg" viewBox="0 0 338.41 54.38"><defs><style>.cls-1{fill:#e7380d}.cls-2{fill:#00a2de}.cls-3{fill:#404041}</style></defs><title>youku_mobile_logo</title><path class="cls-1" d="M61.72 25.75c0-9.06-6.91-16.44-15.42-16.45s-15.46 7.37-15.48 16.45a17.27 17.27 0 0 0 4.14 11.63 14.71 14.71 0 0 0 11.28 4.82v.15-.15c9.36 0 15.41-6.45 15.43-16.42m-20.5 6.61a10.32 10.32 0 0 1-2.07-6.37c0-5 3.2-9 7.13-9 3.92 0 7.12 4 7.11 9s-3.2 9-7.12 9a6.42 6.42 0 0 1-5.06-2.65M86.4 10.43c-2.55.09-4 1.71-4.06 4.7v15.38a5.58 5.58 0 0 1-5.76 5.52 5.46 5.46 0 0 1-5.77-5.53V15.11c-.15-3.07-1.45-4.62-3.95-4.72-2.68 0-4.06 1.55-4.22 4.73V30.5c.29 7.66 5 11.65 13.89 11.8 9-.14 13.58-4 14-11.8V15.13c-.14-3-1.53-4.6-4.11-4.7M32.15 11.84a4 4 0 0 0-2.39-2.14 7 7 0 0 0-2.44-.53c-2.25 0-3.25 1.77-3.93 3.49l-6.18 13.76-8.3-14.2a5.26 5.26 0 0 0-4.37-3.06 4.66 4.66 0 0 0-2.38.72C-1.5 12.06.6 16.17.69 16.35l11.94 20.31-4.7 10.47c-.33.78-1.79 4.77 2.09 6.42a5.64 5.64 0 0 0 2.2.51c2.25 0 3.44-2 4.31-3.89l15.49-34.29a5.86 5.86 0 0 0 .14-4"/><path class="cls-2" d="M144.17 10.38c-2.55.09-4 1.72-4.06 4.7v15.37a5.57 5.57 0 0 1-5.75 5.52 5.46 5.46 0 0 1-5.77-5.53V15.06c-.15-3.07-1.46-4.62-4-4.72-2.68 0-4.06 1.55-4.21 4.74v15.37c.29 7.68 5 11.65 13.89 11.82 9-.14 13.58-4 14-11.81V15.09c-.14-3-1.53-4.61-4.12-4.71M100.55 38.35v-9.09l.24.25 12.24 11.24a4.65 4.65 0 0 0 3.11 1.13 4.33 4.33 0 0 0 3.13-1.22 4 4 0 0 0 1-2.89 5.49 5.49 0 0 0-1.66-3.8l-8.54-7.89 7.69-7.24c.14-.15 3.58-3.76.46-7a4 4 0 0 0-3-1.33 5.09 5.09 0 0 0-3.36 1.37l-11.3 11.56v-8.58c-.07-2.79-1.68-4.34-4.39-4.35s-4.12 1.39-4.3 4.34V38.3c.15 2.62 1.55 3.9 4.3 3.91v.16-.16c2.72 0 4.22-1.31 4.33-3.89M101.4 53.49a1.31 1.31 0 0 1 0 .51.39.39 0 0 1-.43.24.41.41 0 0 1-.34-.14 1.09 1.09 0 0 1-.16-.47l-.77-5.29-.1-.62c0-.25-.09-.46-.13-.64a.8.8 0 0 0-.16-.35c-.06-.05-.12 0-.18.24l-2 6.8a.9.9 0 0 1-.17.36.4.4 0 0 1-.31.11.42.42 0 0 1-.32-.1 1 1 0 0 1-.17-.38q-.5-1.71-1-3.39t-1-3.39a.38.38 0 0 0-.19-.32q-.1 0-.15.32l-1 6.63a1.09 1.09 0 0 1-.15.47.47.47 0 0 1-.42.17q-.5 0-.38-.66l1.21-7.89a1 1 0 0 1 .26-.6.74.74 0 0 1 .54-.2.86.86 0 0 1 .55.17 1.19 1.19 0 0 1 .35.61l1.88 6.64 1.84-6.66a1.12 1.12 0 0 1 .34-.6.84.84 0 0 1 .54-.17.77.77 0 0 1 .54.2 1 1 0 0 1 .29.61zM109.4 44.75a3.79 3.79 0 0 1 1.76.39 3.6 3.6 0 0 1 1.25 1 4.61 4.61 0 0 1 .75 1.53 6.67 6.67 0 0 1 .25 1.84 6.76 6.76 0 0 1-.25 1.85 4.61 4.61 0 0 1-.74 1.53 3.58 3.58 0 0 1-1.25 1 4.21 4.21 0 0 1-3.52 0 3.58 3.58 0 0 1-1.25-1 4.62 4.62 0 0 1-.75-1.53 6.68 6.68 0 0 1-.25-1.86 7 7 0 0 1 .24-1.84 4.43 4.43 0 0 1 .74-1.53 3.57 3.57 0 0 1 1.25-1 3.86 3.86 0 0 1 1.77-.38m0 8.66a2.87 2.87 0 0 0 1.3-.28 2.57 2.57 0 0 0 .93-.78 3.53 3.53 0 0 0 .56-1.21 6.5 6.5 0 0 0 0-3 3.88 3.88 0 0 0-.54-1.25 2.78 2.78 0 0 0-.93-.87 2.89 2.89 0 0 0-2.67 0 2.81 2.81 0 0 0-.93.86 3.8 3.8 0 0 0-.54 1.23 6 6 0 0 0-.17 1.45 5.86 5.86 0 0 0 .17 1.43 4 4 0 0 0 .53 1.23 2.71 2.71 0 0 0 .92.87 2.64 2.64 0 0 0 1.35.33M121.68 49.24a2.77 2.77 0 0 1 1.52.71 2.09 2.09 0 0 1 .59 1.58 2.5 2.5 0 0 1-.71 1.89 2.76 2.76 0 0 1-2 .68h-2.68a.55.55 0 0 1-.42-.15.52.52 0 0 1-.14-.37v-8a.5.5 0 0 1 .14-.37.56.56 0 0 1 .41-.15h2.11a4.07 4.07 0 0 1 1.23.17 2.26 2.26 0 0 1 .85.47 1.88 1.88 0 0 1 .49.72 2.59 2.59 0 0 1 .16.94 1.82 1.82 0 0 1-.43 1.25 2.14 2.14 0 0 1-1.11.66m-2.81-.42h1.6a1.9 1.9 0 0 0 1.27-.38 1.31 1.31 0 0 0 .44-1 1.38 1.38 0 0 0-.42-1 1.8 1.8 0 0 0-1.29-.41h-1.6v2.87zm0 4.38h1.79a2.54 2.54 0 0 0 1.58-.4 1.52 1.52 0 0 0 .52-1.28 1.49 1.49 0 0 0-.61-1.35 3.22 3.22 0 0 0-1.76-.45h-1.5v3.44zM129 53.75a.46.46 0 0 1-.53.5.44.44 0 0 1-.5-.49v-8.37a.44.44 0 0 1 .5-.49.6.6 0 0 1 .4.11.47.47 0 0 1 .13.38v8.36zM138.08 53.17a.56.56 0 0 1 .36.11.44.44 0 0 1 .14.37.42.42 0 0 1-.15.35.57.57 0 0 1-.36.11h-3.31a.71.71 0 0 1-.51-.17.62.62 0 0 1-.18-.46v-8.09a.45.45 0 0 1 .15-.36.55.55 0 0 1 .37-.13.45.45 0 0 1 .53.49v7.78h3zM143.98 53.2h3.81a1.51 1.51 0 0 1 .34 0 .48.48 0 0 1 .23.13.38.38 0 0 1 .09.27.41.41 0 0 1-.15.37.92.92 0 0 1-.48.09h-4.28a.77.77 0 0 1-.46-.11.54.54 0 0 1-.15-.46v-7.93a.61.61 0 0 1 .13-.44.7.7 0 0 1 .48-.13h4.2a.72.72 0 0 1 .42.1.45.45 0 0 1 .15.37.39.39 0 0 1-.15.35.75.75 0 0 1-.42.1h-3.77v3h3.63a.71.71 0 0 1 .44.11.45.45 0 0 1 .13.37.39.39 0 0 1-.13.34.78.78 0 0 1-.44.09h-3.63v3.31z"/><path class="cls-3" d="M195.55 46.57a2.79 2.79 0 0 1-.79 1.9 2.64 2.64 0 0 1-1.87.59h-1.18c-.9 0-2-.39-2-2.2l.05-20.3H200v-4.64h-16.45V10.18h-5.26V21.9h-9.09v4.64h9a34.32 34.32 0 0 1-2.61 11.61 36 36 0 0 1-8.36 11.77V23.38a61.88 61.88 0 0 0 4-11.27l-5-2a70.34 70.34 0 0 1-11.09 22.85l3.95 3.64c1.43-1.93 2.92-4.22 2.92-4.22V53.7h5.25v-3.12l4 3.12a42.72 42.72 0 0 0 9.41-14.08 46.89 46.89 0 0 0 2.82-13.12h1.12v20.77a9.46 9.46 0 0 0 .32 2.82 4 4 0 0 0 1.12 1.9 4.53 4.53 0 0 0 2 1.07 9.12 9.12 0 0 0 2.66.34h3.2a7.07 7.07 0 0 0 4.59-1.18 6.87 6.87 0 0 0 2.17-4.3c.25-1.46.58-4.74.79-6.39l-5.2-1.55c-.14 2.06-.47 5.49-.62 6.55"/><path class="cls-2" d="M194.4 15.6a3.32 3.32 0 1 1-1.57-4.43 3.33 3.33 0 0 1 1.57 4.43M190.21 7.89a4.72 4.72 0 0 1 6.51 3.11l1.36.65a6 6 0 0 0-9.23-4.4zM190.08 2.57a7.41 7.41 0 0 1 10.23 4.88l2.13 1a9.36 9.36 0 0 0-14.49-6.91z"/><path class="cls-3" d="M203.29 15.83h6.76v4.81h-6.77v28.23c0 1.76.38 2.94 1.21 3.59s2.1 1 4.11 1h11.33c2 0 3.36-.31 4.11-1s1.23-1.83 1.22-3.59V20.64h-6.31v-4.81h6.37v-4.64h-22.05v4.63zm4.53 9.36h2.22v.13c0 3.62-.57 7.61-2 9.69l-.25.36V25.2zm12.88 21.68a2.55 2.55 0 0 1-.49 1.84 2 2 0 0 1-1.44.46h-9.07a2 2 0 0 1-1.44-.47 2.58 2.58 0 0 1-.49-1.84v-2.8h12.92v2.8zm-1.75-21.67h1.77v8.33h-.26c-1 0-1.51-.7-1.51-2.07v-6.27zm-5.12-9.36h1.36v4.82h-1.36v-4.81zm0 9.48v-.12h1.36v7.16a4.54 4.54 0 0 0 4.61 4.59h.94v2.8h-12.93V36l3.14 1.9c1.41-1.69 2.88-6.63 2.89-12.53M228.14 48.91c0 1.76.38 2.93 1.21 3.59s2.1 1 4.11 1h8.66c2 0 3.37-.32 4.11-1s1.24-1.84 1.22-3.59V34.47h-19.3zm5-10.11h9.26v8.06a2.52 2.52 0 0 1-.5 1.84 1.93 1.93 0 0 1-1.44.46h-5.4a2 2 0 0 1-1.44-.47 2.52 2.52 0 0 1-.48-1.84v-8.1zM240.72 27.47v-6.25h6.48v-4.34h-6.48v-6.63h-5v6.61h-3.42v-.15c.26-1.49.46-3 .58-4.4l-4.64-.36A89.65 89.65 0 0 1 226 25.18l4.23.83c.11-.45.67-2.54 1.08-4.57l.06-.24h4.32v6.25h-8.82v4.4h21.73v-4.4h-7.86zM252.22 27.95v-5.38h5.94v-4.82h-2.41a24.85 24.85 0 0 1-2.6.19 19.54 19.54 0 0 1-.37-2.41q-.37-2-.56-3a101.68 101.68 0 0 0 15-1.86l1.3 5.38q-.74.19-2.6.56a21 21 0 0 0-2.41.37v5.57h4.64v5.38h-4.64v1.13l5.57 5.92-3.31 3.77q-1.11-1.48-2.23-2.78V53.6h-5.38V35.75a86.38 86.38 0 0 1-4.25 9c-.12-.49-1.32-4-2.06-6.27a77 77 0 0 0 5.38-10.58h-5zm24.31-17.63h6.12l-1.11 1.67a10.29 10.29 0 0 0-1.3 1.86h12.9a1.21 1.21 0 0 1 1.21 1.21v.87a6.15 6.15 0 0 1-1.35 3.82 38.35 38.35 0 0 1-10.72 9.33h4.27a10.81 10.81 0 0 0-1.15 1.47c-.5.62-.87 1.11-1.11 1.48h9.74a1.21 1.21 0 0 1 1.21 1.21v1.43a5.81 5.81 0 0 1-.84 3.08q-7.93 12.85-25.71 15.84a44 44 0 0 0-2.78-5.2 49.56 49.56 0 0 0 12.62-3.16 28.3 28.3 0 0 0-2.41-2c-.62-.49-2.35-1.68-2.6-1.93l3.9-3.15c.37.25 2.29 1.5 3.16 2.12a26.65 26.65 0 0 0 2.78 2.23 23.48 23.48 0 0 0 4.26-4 1.21 1.21 0 0 0-.94-2h-6.66a49.9 49.9 0 0 1-10.39 7.42q-.74-.93-2-2.78c-.5-.62-.87-1.11-1.11-1.48a49.06 49.06 0 0 0 12.44-8.72 74.86 74.86 0 0 1-8.91 3 52.7 52.7 0 0 0-2.78-4.83 53.89 53.89 0 0 0 9.46-2.78 16.24 16.24 0 0 0-1.86-1.48 42.72 42.72 0 0 0-4.14-3.41l3.67-3.39a75.58 75.58 0 0 1 6.92 5.82 27.25 27.25 0 0 0 4.49-3.5 1.21 1.21 0 0 0-.85-2.07h-8.64q-2.78 3-5.94 5.75l-1.86-1.85q-1.3-1.11-2-1.67a45.34 45.34 0 0 0 10-10.21M308.4 34.08l4.82-1.67q.74 1.86 2.41 5.57l2.23 5.57q3.15-5.38 3-20h-4.45v-5.8h4.64q0-3.71.19-7.61h5.75v7.61h11.41q-.19 19.67-.56 29-.19 5.38-5.75 5.94h-2.41c-1.61.12-4.52.19-5.38.19v-6.31c.74 0 1.73.06 3 .19h1.67q3 0 3-2.23.56-7.24.56-21h-5.75q0 3.34-.18 6.13 0 15.22-7.8 23.94a51.57 51.57 0 0 0-5.4-3.75 11.77 11.77 0 0 0 .93-1.11 6.44 6.44 0 0 0 1.3-1.3q-1.49.19-4.45.37-5.2.38-7.24.56l-1 .08c-2.41.22-4.9-.6-6-2.75l-.2-.38a2.54 2.54 0 0 1 .14-1.69c.92-2.34 2.82-6.39 5.24-13.45h-5.38v-5.57h20.41v5.57h-8.54c-1.28 3.64-2.66 7.12-3.95 10.66a1.2 1.2 0 0 0 1.19 1.61h2a23.78 23.78 0 0 0 3.53-.19 69.49 69.49 0 0 0-2.6-7.05 6 6 0 0 0-.37-1.11m6.99-14.87h-16.89v-5.75h16.89v5.75z"/></svg>